# Blender 4.2.0
# www.blender.org
mtllib player.mtl
o Cube
v -0.688530 0.068459 -2.030579
v -0.690000 -0.069312 -2.029823
v 0.688530 0.068459 -2.030579
v 0.690000 -0.069312 -2.029823
v -2.066651 0.460000 -1.754575
v -2.066651 -0.460000 -1.754575
v 2.064840 -0.460000 -1.754575
v 2.064840 0.460000 -1.754575
v 0.690000 -0.460000 -1.029823
v -0.688339 0.462044 -1.030952
v 0.688339 0.462044 -1.030952
v -0.690000 -0.460000 -1.029823
v -2.066651 0.460000 -2.754575
v -2.066651 -0.460000 -2.754575
v 2.064840 -0.460000 -2.754575
v 2.064840 0.460000 -2.754575
v -1.875314 0.405699 -3.514856
v -2.066651 0.460000 -3.388023
v -2.066651 -0.460000 -3.388023
v -1.875314 -0.405699 -3.514856
v 1.873610 -0.405658 -3.514676
v 2.064840 -0.460000 -3.388023
v 2.064840 0.460000 -3.388023
v 1.873610 0.405658 -3.514676
v -0.690000 0.079198 -0.029823
v -0.690000 0.460000 -0.857655
v -1.122121 0.460000 -0.571210
v -0.690000 -0.460000 -0.857655
v -0.690000 -0.079198 -0.029823
v -1.122121 -0.460000 -0.571210
v 0.690000 0.460000 -0.857655
v 0.690000 0.079198 -0.029823
v 1.121878 0.460000 -0.571618
v 0.690000 -0.079198 -0.029823
v 0.690000 -0.460000 -0.857655
v 1.121878 -0.460000 -0.571618
vn -0.0000 0.9305 -0.3664
vn -0.0000 -0.0055 -1.0000
vn -0.0000 1.0000 -0.0000
vn -0.0000 -0.9314 -0.3639
vn 0.1991 -0.9731 -0.1162
vn -0.0000 0.9999 0.0118
vn 0.2733 0.9619 -0.0000
vn 0.7820 -0.0000 0.6233
vn 0.7797 -0.0118 -0.6261
vn 1.0000 -0.0000 -0.0000
vn -0.2733 -0.9619 -0.0000
vn -0.1990 0.9730 -0.1170
vn -0.0000 -1.0000 -0.0000
vn -0.7820 -0.0000 -0.6233
vn -0.0000 -0.0000 1.0000
vn -1.0000 -0.0000 -0.0000
vn -0.5525 -0.0000 -0.8335
vn 0.5522 -0.0000 -0.8337
vn 0.2670 0.8755 0.4027
vn 0.2670 -0.8755 0.4027
vn -0.2668 0.8756 0.4028
vn -0.2668 -0.8756 0.4028
vn -0.0000 -0.9085 0.4179
vn -0.0000 0.9085 0.4179
vn -0.7816 -0.0000 0.6238
vn 0.0161 0.9998 0.0116
vn 0.5844 -0.7558 -0.2953
vn 0.4155 0.8463 -0.3333
vn 0.2731 0.9620 0.0002
vn -0.0160 0.9998 0.0116
vn 0.7816 -0.0000 -0.6238
vn -0.4153 -0.8473 -0.3310
vn -0.5863 0.7538 -0.2969
vn 0.0015 1.0000 -0.0000
vn -0.7801 -0.0118 -0.6256
vt 0.515328 0.547734
vt 0.658852 0.765393
vt 0.515328 0.765362
vt 0.322649 0.765393
vt 0.343860 0.547471
vt 0.343860 0.765625
vt 0.213237 0.440087
vt 0.165246 0.279781
vt 0.223129 0.229639
vt 0.486969 0.765625
vt 0.486969 0.547471
vt 0.926566 0.253858
vt 0.963651 0.017704
vt 0.985111 0.027519
vt 0.501283 0.547471
vt 0.501283 0.765625
vt 0.868021 0.118968
vt 0.846436 0.304564
vt 0.809387 0.272464
vt 0.799542 0.059644
vt 0.750898 0.221789
vt 0.370699 0.481737
vt 0.280980 0.418275
vt 0.434244 0.279969
vt 0.685151 0.304555
vt 0.605237 0.480284
vt 0.661973 0.304469
vt 0.434281 0.229848
vt 0.281082 0.279856
vt 0.281119 0.229735
vt 0.165232 0.298142
vt 0.143873 0.481570
vt 0.107219 0.449795
vt 0.223390 0.431537
vt 0.259795 0.197877
vt 0.280990 0.207567
vt 0.097405 0.239343
vt 0.049354 0.399632
vt 0.369242 0.197966
vt 0.290297 0.024163
vt 0.425366 0.024263
vt 0.322649 0.983779
vt 0.349207 0.765625
vt 0.349207 0.983779
vt 0.434305 0.198099
vt 0.281142 0.197987
vt 0.596123 0.100373
vt 0.750898 0.049763
vt 0.750898 0.100373
vt 0.916486 0.262572
vt 0.868021 0.100373
vt 0.926566 0.049763
vt 0.501283 0.547471
vt 0.741743 0.480284
vt 0.596123 0.490109
vt 0.281278 0.014448
vt 0.434440 0.014561
vt 0.596123 0.049763
vt 0.750898 0.017704
vt 0.750898 0.017704
vt 0.751053 0.081758
vt 0.868021 0.304469
vt 0.868021 0.240405
vt 0.165097 0.481586
vt 0.165297 0.418200
vt 0.049503 0.197816
vt 0.049456 0.261212
vt 0.476907 0.983779
vt 0.476907 0.765625
vt 0.604607 0.983779
vt 0.476907 0.983779
vt 0.686834 0.304469
vt 0.596123 0.240405
vt 0.658852 0.547703
vt 0.322649 0.547703
vt 0.985111 0.203248
vt 0.809801 0.068285
vt 0.867875 0.294773
vt 0.434142 0.418388
vt 0.344330 0.481718
vt 0.107368 0.247979
vt 0.165104 0.471887
vt 0.281007 0.381388
vt 0.346306 0.198035
vt 0.322649 0.765625
vt 0.750898 0.490109
vt 0.596123 0.017704
vt 0.604607 0.765625
vt 0.750898 0.240405
vt 0.660187 0.304469
s 0
usemtl Material
f 11/1/1 1/2/1 10/3/1
f 1/4/2 4/5/2 2/6/2
f 31/7/3 8/8/3 16/9/3
f 12/10/4 4/5/4 9/11/4
f 12/12/5 19/13/5 20/14/5
f 31/15/6 10/3/6 26/16/6
f 1/17/7 18/18/7 13/19/7
f 26/20/3 13/19/3 5/21/3
f 32/22/8 36/23/8 8/24/8
f 2/25/9 17/26/9 1/27/9
f 16/28/10 7/29/10 15/30/10
f 4/31/11 22/32/11 15/33/11
f 11/34/12 23/35/12 24/36/12
f 35/37/13 15/33/13 7/38/13
f 4/39/14 24/40/14 21/41/14
f 32/42/15 29/43/15 34/44/15
f 23/45/10 15/30/10 22/46/10
f 5/47/16 14/48/16 6/49/16
f 28/50/13 6/51/13 14/52/13
f 28/16/13 9/11/13 35/53/13
f 20/54/17 18/55/17 17/26/17
f 21/41/18 23/56/18 22/57/18
f 13/58/16 19/59/16 14/48/16
f 25/60/19 26/20/19 27/61/19
f 28/50/20 29/62/20 30/63/20
f 31/7/21 32/64/21 33/65/21
f 34/66/22 35/37/22 36/67/22
f 35/68/23 29/43/23 28/69/23
f 26/69/24 32/70/24 31/71/24
f 29/72/25 27/73/25 6/49/25
f 11/1/1 3/74/1 1/2/1
f 1/4/2 3/75/2 4/5/2
f 16/9/26 11/34/26 31/7/26
f 31/7/3 33/65/3 8/8/3
f 12/10/4 2/6/4 4/5/4
f 20/14/27 2/76/27 12/12/27
f 12/12/13 14/52/13 19/13/13
f 31/15/6 11/1/6 10/3/6
f 13/19/28 10/77/28 1/17/28
f 1/17/29 17/78/29 18/18/29
f 5/21/3 27/61/3 26/20/3
f 26/20/30 10/77/30 13/19/30
f 8/24/8 33/79/8 32/22/8
f 32/22/8 34/80/8 36/23/8
f 36/23/8 7/29/8 8/24/8
f 2/25/31 20/54/31 17/26/31
f 16/28/10 8/24/10 7/29/10
f 15/33/32 9/81/32 4/31/32
f 4/31/11 21/82/11 22/32/11
f 24/36/33 3/83/33 11/34/33
f 11/34/34 16/9/34 23/35/34
f 7/38/13 36/67/13 35/37/13
f 35/37/13 9/81/13 15/33/13
f 4/39/35 3/84/35 24/40/35
f 32/42/15 25/85/15 29/43/15
f 23/45/10 16/28/10 15/30/10
f 5/47/16 13/58/16 14/48/16
f 14/52/13 12/12/13 28/50/13
f 28/50/13 30/63/13 6/51/13
f 28/16/13 12/10/13 9/11/13
f 20/54/17 19/86/17 18/55/17
f 21/41/18 24/40/18 23/56/18
f 13/58/16 18/87/16 19/59/16
f 35/68/23 34/44/23 29/43/23
f 26/69/24 25/88/24 32/70/24
f 6/49/25 30/89/25 29/72/25
f 29/72/25 25/90/25 27/73/25
f 27/73/25 5/47/25 6/49/25
