# Blender 4.5.3 LTS
# www.blender.org
mtllib player.mtl
o Cube
v -0.688530 0.068459 -1.000755
v -0.690000 -0.069312 -1.000000
v 0.688530 0.068459 -1.000755
v 0.690000 -0.069312 -1.000000
v -2.066651 0.460000 -0.724751
v -2.066651 -0.460000 -0.724751
v 1.914686 -0.460000 -0.724751
v 1.914686 0.460000 -0.724751
v 0.690000 -0.460000 0.000000
v -0.688339 0.462044 -0.001129
v 0.688339 0.462044 -0.001129
v -0.690000 -0.460000 0.000000
v -2.066651 0.460000 -1.724751
v -2.066651 -0.460000 -1.724751
v 2.064840 -0.460000 -1.724751
v 2.064840 0.460000 -1.724751
v -1.875314 0.405699 -2.485033
v -2.066651 0.460000 -2.358200
v -2.066651 -0.460000 -2.358200
v -1.875314 -0.405699 -2.485033
v 1.873610 -0.405658 -2.484852
v 2.064840 -0.460000 -2.358200
v 2.064840 0.460000 -2.358200
v 1.873610 0.405658 -2.484852
v -0.411039 0.460000 0.999567
v -1.122121 0.460000 0.458613
v -0.690000 -0.343154 0.172169
v -0.539846 -0.213710 1.000000
v -1.122121 -0.460000 0.458613
v 0.411039 0.460000 0.999567
v 0.971723 0.460000 0.458205
v 0.539846 -0.213710 1.000000
v 0.690000 -0.343154 0.172169
v 0.971723 -0.460000 0.458205
v -0.272634 -0.178832 2.296868
v -0.266451 0.093313 2.303689
v -0.281862 0.088473 2.307727
v 0.266451 0.093313 2.303689
v 0.272634 -0.178832 2.296868
v 0.278984 0.088893 2.305625
vn -0.0000 0.9305 -0.3664
vn -0.0000 -0.0055 -1.0000
vn -0.0000 1.0000 -0.0000
vn -0.0000 -0.9314 -0.3639
vn 0.1991 -0.9731 -0.1162
vn -0.0000 1.0000 0.0020
vn 0.2733 0.9619 -0.0000
vn 0.7797 -0.0118 -0.6261
vn 0.9889 -0.0000 0.1485
vn -0.2733 -0.9619 -0.0000
vn -0.1990 0.9730 -0.1170
vn -0.1066 -0.9942 -0.0160
vn -0.7820 -0.0000 -0.6233
vn 1.0000 -0.0000 -0.0000
vn -1.0000 -0.0000 -0.0000
vn 0.0846 -0.9964 -0.0000
vn -0.0000 -0.8274 0.5616
vn -0.5525 -0.0000 -0.8335
vn 0.5522 -0.0000 -0.8337
vn 0.3154 -0.9446 0.0905
vn -0.4351 -0.8983 0.0615
vn -0.0000 -0.9880 0.1545
vn 0.2622 -0.0301 0.9645
vn -0.1624 -0.0284 0.9863
vn -0.0000 -0.0251 0.9997
vn -0.6415 -0.7099 0.2906
vn -0.2179 0.9330 0.2865
vn -0.0000 0.9627 0.2707
vn -0.0000 -0.9996 0.0269
vn 0.2785 0.9161 0.2885
vn 0.1426 -0.9576 0.2504
vn 0.0062 1.0000 0.0038
vn 0.5844 -0.7558 -0.2953
vn -0.0000 -1.0000 -0.0000
vn 0.4155 0.8463 -0.3333
vn 0.2731 0.9620 0.0002
vn -0.0062 1.0000 0.0038
vn 0.7816 -0.0000 -0.6238
vn -0.4153 -0.8473 -0.3310
vn -0.5863 0.7538 -0.2969
vn 0.0015 1.0000 -0.0000
vn -0.2200 -0.9596 -0.1753
vn 0.5759 -0.6764 0.4591
vn -0.7801 -0.0118 -0.6256
vn -0.5754 -0.6767 0.4593
vn 0.1725 -0.9753 -0.1377
vn -0.7056 0.4302 0.5632
vn -0.9783 -0.0420 0.2027
vn -0.4681 0.8008 0.3736
vn -0.7488 -0.0000 0.6628
vn 0.4065 0.8543 0.3240
vn 0.9788 -0.0298 0.2025
vn 0.7820 -0.0000 0.6233
vn 0.8800 -0.0000 0.4750
vt 0.515328 0.547734
vt 0.658852 0.765393
vt 0.515328 0.765362
vt 0.322649 0.765393
vt 0.343860 0.547471
vt 0.343860 0.765625
vt 0.213237 0.440087
vt 0.165246 0.279781
vt 0.223129 0.229639
vt 0.486969 0.765625
vt 0.486969 0.547471
vt 0.926566 0.253858
vt 0.963651 0.017704
vt 0.985111 0.027519
vt 0.501283 0.547471
vt 0.501283 0.765625
vt 0.868021 0.118968
vt 0.846436 0.304564
vt 0.809387 0.272464
vt 0.799542 0.059644
vt 0.750898 0.221789
vt 0.685151 0.304555
vt 0.605237 0.480284
vt 0.661973 0.304469
vt 0.434281 0.229848
vt 0.281082 0.279856
vt 0.281119 0.229735
vt 0.165232 0.298142
vt 0.143873 0.481570
vt 0.107219 0.449795
vt 0.223390 0.431537
vt 0.259795 0.197877
vt 0.280990 0.207567
vt 0.097405 0.239343
vt 0.049354 0.399632
vt 0.369242 0.197966
vt 0.290297 0.024163
vt 0.425366 0.024263
vt 0.434305 0.198099
vt 0.281142 0.197987
vt 0.596123 0.100373
vt 0.750898 0.049763
vt 0.750898 0.100373
vt 0.916486 0.262572
vt 0.868021 0.100373
vt 0.926566 0.049763
vt 0.501283 0.547471
vt 0.741743 0.480284
vt 0.596123 0.490109
vt 0.281278 0.014448
vt 0.434440 0.014561
vt 0.596123 0.049763
vt 0.750898 0.017704
vt 0.868021 0.304469
vt 0.868021 0.240405
vt 0.049503 0.197816
vt 0.049456 0.261212
vt 0.476907 0.983779
vt 0.349207 0.765625
vt 0.476907 0.765625
vt 0.750902 0.018992
vt 0.752702 0.019258
vt 0.750902 0.019264
vt 0.372230 0.480209
vt 0.369589 0.481737
vt 0.372315 0.480124
vt 0.323768 0.983779
vt 0.322649 0.765625
vt 0.323768 0.765625
vt 0.686834 0.304469
vt 0.658626 0.302908
vt 0.751053 0.081758
vt 0.599873 0.983779
vt 0.476907 0.983779
vt 0.349207 0.983779
vt 0.165102 0.479972
vt 0.165297 0.418200
vt 0.344330 0.481718
vt 0.658852 0.547703
vt 0.322649 0.547703
vt 0.985111 0.203248
vt 0.809801 0.068285
vt 0.867875 0.294773
vt 0.434244 0.279969
vt 0.107368 0.247979
vt 0.165104 0.471887
vt 0.281007 0.381388
vt 0.346306 0.198035
vt 0.750898 0.490109
vt 0.596123 0.017704
vt 0.322649 0.983779
vt 0.750898 0.240405
vt 0.661309 0.304469
vt 0.596123 0.240405
vt 0.599873 0.765625
vt 0.166882 0.480048
vt 0.434142 0.418388
vt 0.280980 0.418275
s 0
usemtl Material
f 11/1/1 1/2/1 10/3/1
f 1/4/2 4/5/2 2/6/2
f 30/7/3 8/8/3 16/9/3
f 12/10/4 4/5/4 9/11/4
f 12/12/5 19/13/5 20/14/5
f 30/15/6 10/3/6 25/16/6
f 1/17/7 18/18/7 13/19/7
f 25/20/3 13/19/3 5/21/3
f 2/22/8 17/23/8 1/24/8
f 16/25/9 7/26/9 15/27/9
f 4/28/10 22/29/10 15/30/10
f 11/31/11 23/32/11 24/33/11
f 33/34/12 15/30/12 7/35/12
f 4/36/13 24/37/13 21/38/13
f 23/39/14 15/27/14 22/40/14
f 5/41/15 14/42/15 6/43/15
f 27/44/16 6/45/16 14/46/16
f 27/16/17 9/11/17 33/47/17
f 20/48/18 18/49/18 17/23/18
f 21/38/19 23/50/19 22/51/19
f 13/52/15 19/53/15 14/42/15
f 27/44/20 28/54/20 29/55/20
f 32/56/21 33/34/21 34/57/21
f 33/58/22 28/59/22 27/60/22
f 35/61/23 36/62/23 37/63/23
f 38/64/24 39/65/24 40/66/24
f 39/67/25 36/68/25 35/69/25
f 28/70/26 37/71/26 5/41/26
f 37/63/27 25/20/27 26/72/27
f 25/60/28 38/73/28 30/74/28
f 32/75/29 35/69/29 28/59/29
f 30/7/30 40/76/30 31/77/30
f 40/66/31 32/78/31 7/26/31
f 11/1/1 3/79/1 1/2/1
f 1/4/2 3/80/2 4/5/2
f 16/9/32 11/31/32 30/7/32
f 30/7/3 31/77/3 8/8/3
f 12/10/4 2/6/4 4/5/4
f 20/14/33 2/81/33 12/12/33
f 12/12/34 14/46/34 19/13/34
f 30/15/6 11/1/6 10/3/6
f 13/19/35 10/82/35 1/17/35
f 1/17/36 17/83/36 18/18/36
f 5/21/3 26/72/3 25/20/3
f 25/20/37 10/82/37 13/19/37
f 2/22/38 20/48/38 17/23/38
f 16/25/9 8/84/9 7/26/9
f 15/30/39 9/85/39 4/28/39
f 4/28/10 21/86/10 22/29/10
f 24/33/40 3/87/40 11/31/40
f 11/31/41 16/9/41 23/32/41
f 7/35/42 34/57/42 33/34/42
f 33/34/43 9/85/43 15/30/43
f 4/36/44 3/88/44 24/37/44
f 23/39/14 16/25/14 15/27/14
f 5/41/15 13/52/15 14/42/15
f 14/46/45 12/12/45 27/44/45
f 27/44/46 29/55/46 6/45/46
f 27/16/17 12/10/17 9/11/17
f 20/48/18 19/89/18 18/49/18
f 21/38/19 24/37/19 23/50/19
f 13/52/15 18/90/15 19/53/15
f 33/58/22 32/75/22 28/59/22
f 39/67/25 38/91/25 36/68/25
f 6/43/47 29/92/47 28/70/47
f 28/70/48 35/93/48 37/71/48
f 37/71/49 26/94/49 5/41/49
f 5/41/50 6/43/50 28/70/50
f 37/63/27 36/62/27 25/20/27
f 25/60/28 36/95/28 38/73/28
f 32/75/29 39/67/29 35/69/29
f 30/7/30 38/96/30 40/76/30
f 8/84/51 31/97/51 40/66/51
f 40/66/52 39/65/52 32/78/52
f 32/78/53 34/98/53 7/26/53
f 7/26/54 8/84/54 40/66/54
