# Blender 4.3.0
# www.blender.org
mtllib hexagon.mtl
o 円
v 0.000000 -0.177991 1.000000
v 0.866025 -0.177991 0.500000
v 0.866025 -0.177991 -0.500000
v 0.000000 -0.177991 -1.000000
v -0.866025 -0.177992 -0.500000
v -0.866025 -0.177992 0.500000
v 0.000000 0.177991 1.000000
v 0.866025 0.177992 0.500000
v 0.866025 0.177992 -0.500000
v 0.000000 0.177991 -1.000000
v -0.866025 0.177991 -0.500000
v -0.866025 0.177991 0.500000
vn 0.5000 -0.0000 -0.8660
vn 0.5000 -0.0000 0.8660
vn -1.0000 -0.0000 -0.0000
vn 1.0000 -0.0000 -0.0000
vn -0.5000 -0.0000 0.8660
vn -0.5000 -0.0000 -0.8660
vn -0.0000 -1.0000 -0.0000
vn -0.0000 1.0000 -0.0000
vt 0.000000 0.000000
s 1
usemtl Material.001
f 6/1/1 7/1/1 1/1/1
f 4/1/2 11/1/2 5/1/2
f 2/1/3 9/1/3 3/1/3
f 5/1/4 12/1/4 6/1/4
f 3/1/5 10/1/5 4/1/5
f 1/1/6 8/1/6 2/1/6
f 7/1/7 11/1/7 9/1/7
f 3/1/8 5/1/8 1/1/8
f 6/1/1 12/1/1 7/1/1
f 4/1/2 10/1/2 11/1/2
f 2/1/3 8/1/3 9/1/3
f 5/1/4 11/1/4 12/1/4
f 3/1/5 9/1/5 10/1/5
f 1/1/6 7/1/6 8/1/6
f 9/1/7 8/1/7 7/1/7
f 7/1/7 12/1/7 11/1/7
f 11/1/7 10/1/7 9/1/7
f 1/1/8 2/1/8 3/1/8
f 3/1/8 4/1/8 5/1/8
f 5/1/8 6/1/8 1/1/8
